<?xml version="1.0" encoding="utf-8"?>
<!-- Generator: Adobe Illustrator 16.0.0, SVG Export Plug-In . SVG Version: 6.00 Build 0)  -->
<!DOCTYPE svg PUBLIC "-//W3C//DTD SVG 1.1//EN" "http://www.w3.org/Graphics/SVG/1.1/DTD/svg11.dtd">
<svg version="1.1" xmlns="http://www.w3.org/2000/svg" xmlns:xlink="http://www.w3.org/1999/xlink" x="0px" y="0px"
	 width="758.566px" height="1024.999px" viewBox="0 0 758.566 1024.999" enable-background="new 0 0 758.566 1024.999"
	 xml:space="preserve">
<g id="Layer_2_1_">
</g>
<g id="Layer_1">
	<polygon fill="#EF4136" points="168.747,1023.361 0,1024.499 1.14,596.603 67.48,619.968 118.672,640.886 150.085,655.976 
		166.467,665.344 187.293,674.572 205.931,675.713 230.364,669.947 250.142,661.856 279.228,643.259 302.497,630.472 
		329.282,616.478 367.652,636.285 409.559,654.861 453.747,675.803 483.998,694.4 473.526,704.862 445.603,728.109 402.555,758.328 
		357.18,787.385 305.988,826.905 260.613,874.56 212.912,941.975 183.872,994.28 	"/>
	<polyline fill="#9E1F63" points="481.435,739.731 466.264,765.302 449.975,789.712 426.661,824.581 403.461,862.937 
		384.776,893.157 363.835,929.189 345.219,965.221 331.257,989.63 320.785,1009.389 318.53,1017.526 277.738,1017.526 
		238.18,1017.526 209.094,1017.526 224.219,993.117 237.017,964.059 256.796,929.189 278.902,893.157 303.334,861.775 
		321.949,840.853 353.362,819.931 390.594,790.873 417.353,769.952 445.276,751.354 472.036,736.245 492.977,717.647 	"/>
	<polygon fill="#FFF200" points="507.26,716.485 520.084,738.548 531.699,760.653 543.328,775.763 554.962,793.198 559.64,809.411 
		551.471,822.256 537.51,847.827 524.763,875.794 518.894,863.508 507.26,858.288 490.972,851.313 474.683,838.528 464.214,831.553 
		452.914,817.606 464.214,797.847 483.998,769.952 490.972,767.627 495.626,753.679 500.402,744.381 	"/>
	<polygon fill="#FFF200" points="533.699,1012.969 485.998,1014.11 432.478,1016.387 382.425,1017.526 381.286,1002.416 
		376.131,988.468 376.131,968.709 392.967,940.812 404.625,912.917 417.328,889.6 432.478,858.288 454.345,863.508 469.709,865.784 
		484.857,879.165 496.468,891.972 503.845,901.295 507.335,916.403 512.083,937.906 515.456,948.949 522.624,972.033 
		529.559,996.603 	"/>
	<polygon fill="#00AEEF" points="651.575,1010.575 634.076,1017.526 613.135,1024.499 595.682,1018.106 577.067,1017.526 
		564.248,1014.691 557.29,994.28 552.635,975.681 547.981,959.409 543.212,945.462 537.51,926.865 539.791,914.056 544.492,896.644 
		559.615,883.859 579.395,868.749 592.262,860.567 602.665,875.722 611.972,893.157 621.278,910.593 624.815,928.027 
		631.797,941.393 638.802,965.221 644.594,984.98 649.295,1001.253 	"/>
	<polygon fill="#9E1F63" points="758.566,1008.227 735.298,1017.526 719.01,1024.499 695.74,995.442 682.943,964.059 
		653.855,924.539 625.933,875.794 595.682,842.015 575.904,809.411 551.471,768.789 531.699,738.569 531.699,723.459 
		525.903,716.485 559.64,716.485 603.827,709.488 648.039,703.7 696.904,694.4 735.298,687.427 758.566,682.778 758.566,848.989 
		758.566,969.87 	"/>
	<polygon fill="#EC008C" points="758.566,574.682 750.424,628.148 750.424,639.77 703.885,654.883 653.855,668.853 613.135,678.084 
		587.539,681.638 559.64,682.778 542.164,682.778 513.078,682.778 500.402,682.778 490.972,671.155 506.276,659.531 
		542.164,653.719 574.741,647.909 595.682,639.772 624.769,628.73 678.288,614.201 716.635,598.883 737.625,581.656 	"/>
	<polygon fill="#27AAE1" points="730.69,554.948 677.125,527.539 637.568,510.754 606.107,540.93 570.087,574.682 531.699,603.74 
		490.972,621.175 474.662,642.214 490.972,638.681 506.276,643.259 521.223,631.706 531.699,635.122 580.559,616.572 
		624.769,600.231 668.981,582.75 702.72,568.871 	"/>
	<polygon fill="#F7941E" points="624.769,489.834 589.867,524.121 550.307,561.897 514.241,594.326 490.972,621.175 
		452.914,635.122 443.27,643.259 414.189,628.73 386.261,614.201 372.992,603.74 404.878,585.143 422.33,566.547 444.435,540.976 
		463.05,524.121 483.998,496.806 500.402,464.844 525.903,425.906 554.962,442.177 578.232,456.126 602.677,474.722 	"/>
	<polygon fill="#7F3F98" points="525.903,388.711 495.632,373.601 459.564,356.166 425.825,336.407 393.248,316.648 
		366.488,293.401 352.526,281.778 335.074,295.726 310.642,310.836 286.209,323.621 265.267,335.245 255.959,371.276 
		241.998,409.052 229.2,435.204 223.383,456.126 229.2,471.235 232.69,471.235 233.854,513.079 235.017,544.462 231.527,571.195 
		226.873,603.74 223.383,632.799 218.682,646.769 253.632,632.799 278.065,618.85 316.484,594.466 338.564,583.981 364.161,568.871 
		392.108,547.972 410.7,531.677 432.828,513.102 452.606,495.67 470.036,472.398 491,444.503 511.92,409.052 	"/>
	<polygon fill="#FFF200" points="340.891,256.207 339.753,249.164 301.358,259.625 271.084,265.506 235.017,277.129 
		236.157,300.399 243.138,305.094 259.45,302.699 265.267,299.213 271.084,301.538 287.954,291.076 305.988,281.778 323.44,277.129 
		337.471,266.692 	"/>
	<polygon fill="#00A651" points="183.825,603.74 174.987,577.007 172.077,557.822 171.027,536.326 165.21,506.104 162.883,482.86 
		148.922,449.152 137.264,415.445 129.12,389.874 117.486,359.654 110.505,336.407 103.524,311.998 96.567,285.265 89.586,267.83 
		103.547,251.557 112.854,251.557 123.326,243.422 132.634,243.422 155.902,237.61 162.883,237.61 176.844,245.746 192.016,253.813 
		205.931,267.83 207.094,288.752 205.931,308.511 205.931,325.947 200.114,343.381 200.114,367.79 193.133,375.926 195.46,420.675 
		195.46,438.691 196.623,468.912 196.623,493.319 196.623,524.121 191.969,554.923 188.479,588.631 	"/>
	<polygon fill="#FBB040" points="155.902,614.201 151.248,614.201 131.47,614.201 97.73,597.929 45.375,580.494 5.817,564.22 
		11.635,524.121 11.635,465.424 11.635,422.418 12.798,379.413 11.635,328.271 12.798,279.454 16.288,236.448 18.615,209.715 
		17.451,203.902 38.394,203.902 51.192,215.525 61.662,246.908 70.97,280.615 80.86,322.459 96.567,375.926 107.037,414.282 
		114.018,451.476 123.326,481.697 130.306,511.918 138.45,543.3 144.268,574.682 148.922,601.416 	"/>
	<polygon fill="#F9ED32" points="105.851,209.786 111.691,203.902 104.71,188.793 89.586,166.709 80.86,153.923 66.316,138.813 
		60.499,138.813 53.518,121.378 41.884,113.242 30.249,107.43 16.288,102.781 5.817,98.132 0,87.671 0,93.482 5.817,107.43 
		5.817,121.378 11.635,136.488 12.798,150.436 18.615,150.436 31.413,164.384 45.375,172.544 62.826,180.656 80.86,189.955 
		89.586,196.953 	"/>
	<polygon fill="#00AEEF" points="43.048,7.471 30.249,5.193 16.288,7.471 5.817,7.471 0,7.471 0,17.932 5.817,29.555 5.817,38.854 
		5.817,44.664 11.635,51.639 13.961,58.613 21.524,51.639 26.783,41.203 31.459,31.905 40.767,17.932 	"/>
	<polygon fill="#EC008C" points="414.189,5.193 408.372,52.802 400.228,99.294 392.084,148.726 392.084,189.955 386.266,209.786 
		360.671,217.851 333.911,229.473 307.151,237.61 278.065,246.908 261.777,246.908 241.998,256.207 207.094,214.364 
		165.163,181.865 119.813,148.726 82,123.726 43.048,87.671 30.249,77.21 43.048,58.613 60.499,31.905 70.97,5.193 162.883,5.193 
		265.267,5.193 378.123,5.193 	"/>
	<polygon fill="#ED1C24" points="483.998,87.671 474.662,87.671 452.914,80.699 436.291,74.886 424.657,71.47 424.657,66.75 
		424.657,52.802 432.801,41.179 447.925,26.071 454.327,15.563 463.051,26.071 472.382,40.017 474.662,58.613 479.34,77.212 	"/>
	<polygon fill="#00AEEF" points="735.323,1.638 741.163,31.905 743.443,58.613 707.376,51.617 653.855,42.342 610.809,42.342 
		566.597,36.6 525.903,35.439 498.882,31.905 483.998,20.258 483.998,10.96 514.244,8.612 553.8,5.193 595.682,5.193 637.569,0.499 
		670.203,0.499 	"/>
	<polygon fill="#ED1C24" points="741.163,88.906 695.742,103.946 637.569,119.055 587.54,126.03 559.64,126.03 542.165,126.03 
		521.223,117.892 521.223,102.783 521.223,92.323 506.276,74.886 498.882,74.886 531.699,66.75 553.8,66.75 574.743,71.401 
		602.677,74.886 636.406,76.049 664.329,77.212 678.291,77.212 702.721,71.401 	"/>
	<polygon fill="#2BB673" points="506.276,138.815 490.977,153.924 474.662,170.245 445.599,182.983 424.657,192.306 420.003,166.13 
		425.238,138.815 431.637,114.406 454.327,119.055 474.662,126.03 490.977,126.03 	"/>
	<polygon fill="#FFF200" points="490.972,344.546 474.662,336.408 452.914,321.299 414.189,295.727 374.131,264.346 
		359.504,256.207 407.204,237.61 424.657,249.164 432.801,264.346 445.599,281.778 458.397,305.094 474.662,321.299 	"/>
	<polygon fill="#F15A29" points="752.867,305.094 719.011,321.299 693.415,336.408 653.855,359.655 624.769,378.252 
		609.645,394.524 587.54,402.66 570.089,402.66 552.636,393.362 543.329,375.928 531.699,358.492 515.406,337.571 500.402,322.462 
		483.998,294.565 464.214,270.156 452.914,249.164 445.599,228.314 465.379,217.853 490.972,203.902 517.734,181.82 537.51,167.872 
		571.253,167.872 609.645,156.249 653.855,142.301 682.944,130.701 705.05,130.701 730.69,126.03 752.867,126.03 752.867,167.872 
		752.867,209.786 752.867,256.207 	"/>
	<polygon fill="#FFF200" points="715.519,515.406 687.598,495.646 681.779,489.836 662.002,489.836 642.236,481.699 
		624.769,464.844 611.972,457.291 602.677,446.83 587.54,442.178 602.677,425.906 632.915,409.052 653.855,394.524 677.127,379.415 
		698.068,370.115 715.519,370.115 725.991,370.115 730.69,375.928 730.69,391.038 738.789,399.174 746.932,409.052 752.867,420.675 
		743.443,442.761 730.69,477.049 721.338,502.621 	"/>
</g>
</svg>
